<svg xmlns="http://www.w3.org/2000/svg" viewBox="0 0 600 500" width="600" height="500">
  <!-- Background -->
  <rect width="600" height="500" fill="#2a2a2a"/>
  
  <!-- Plate -->
  <ellipse cx="300" cy="280" rx="150" ry="120" fill="#f5f5f5" stroke="#999" stroke-width="2"/>
  <ellipse cx="300" cy="280" rx="140" ry="110" fill="#ffffff"/>
  
  <!-- Skewers -->
  <g transform="translate(300, 280)">
    <!-- Skewer 1 -->
    <line x1="-100" y1="60" x2="100" y2="-60" stroke="#654321" stroke-width="5" stroke-linecap="round"/>
    <circle cx="-80" cy="48" r="14" fill="#c41e3a"/>
    <circle cx="-50" cy="30" r="14" fill="#d4522f"/>
    <circle cx="-20" cy="12" r="14" fill="#c41e3a"/>
    <circle cx="10" cy="-6" r="14" fill="#d4522f"/>
    <circle cx="40" cy="-24" r="14" fill="#c41e3a"/>
    <circle cx="70" cy="-42" r="14" fill="#d4522f"/>
    
    <!-- Skewer 2 -->
    <line x1="100" y1="60" x2="-100" y2="-60" stroke="#654321" stroke-width="5" stroke-linecap="round"/>
    <circle cx="80" cy="48" r="14" fill="#b91c1c"/>
    <circle cx="50" cy="30" r="14" fill="#c41e3a"/>
    <circle cx="20" cy="12" r="14" fill="#b91c1c"/>
    <circle cx="-10" cy="-6" r="14" fill="#c41e3a"/>
    <circle cx="-40" cy="-24" r="14" fill="#b91c1c"/>
    <circle cx="-70" cy="-42" r="14" fill="#c41e3a"/>
    
    <!-- Garnish - Parsley -->
    <circle cx="-120" cy="0" r="10" fill="#22c55e"/>
    <circle cx="120" cy="0" r="10" fill="#22c55e"/>
    
    <!-- Lemon -->
    <circle cx="0" cy="-100" r="12" fill="#fbbf24"/>
    <circle cx="-8" cy="-95" r="3" fill="#f59e0b"/>
  </g>
  
  <!-- Shadows -->
  <ellipse cx="300" cy="400" rx="100" ry="20" fill="#000000" opacity="0.2"/>
  
  <!-- Text -->
  <text x="300" y="450" font-family="Arial, sans-serif" font-size="24" font-weight="bold" fill="#d4af37" text-anchor="middle">كباب مشوي بالفحم</text>
</svg>
